<?xml version="1.0" standalone="no"?>
<!DOCTYPE svg PUBLIC "-//W3C//DTD SVG 20010904//EN"
 "http://www.w3.org/TR/2001/REC-SVG-20010904/DTD/svg10.dtd">
<svg version="1.0" xmlns="http://www.w3.org/2000/svg"
 width="24.000000pt" height="24.000000pt" viewBox="0 0 24.000000 24.000000"
 preserveAspectRatio="xMidYMid meet">

<g transform="translate(0.000000,24.000000) scale(0.100000,-0.100000)"
fill="#000000" stroke="none">
<path d="M130 216 c0 -4 -11 -6 -25 -4 -13 3 -22 2 -20 -3 3 -4 -8 -10 -25
-14 -27 -6 -44 -35 -21 -35 5 0 12 -34 16 -75 l7 -75 63 0 62 0 7 38 c3 20 6
56 6 80 l0 42 -52 1 -53 1 58 16 c31 9 56 21 54 27 -4 12 -77 14 -77 1z m-43
-52 c-3 -3 -12 -4 -19 -1 -8 3 -5 6 6 6 11 1 17 -2 13 -5z m12 -96 c0 -10 -3
-18 -9 -18 -5 0 -9 21 -9 48 1 42 2 44 9 17 4 -16 8 -38 9 -47z m28 5 c-2 -16
-4 -5 -4 22 0 28 2 40 4 28 2 -13 2 -35 0 -50z m39 -21 c-13 -12 -16 8 -9 49
l8 44 3 -44 c2 -23 1 -46 -2 -49z"/>
</g>
</svg>
